# xmcd
#
# Track frame offsets:
#	150
#	17661
#	34014
#	50708
#	64974
#	81670
#	99633
#	121290
#	137469
#	151955
#	167785
#	185000
#	200804
#	214884
#	230305
#	247107
#	263278
#	280570
#	295932
#	313537
#	330812
#
# Disc length: 4593 seconds
# Revision: 6
# Processed by: cddbd v1.5.2PL0 Copyright (c) Steve Scherf et al.
# Submitted via: dBpowerAMP V12.0
#
DISCID=2f11ef15
DTITLE=Various Artist - Reloaded: 20 #1 Hits
DYEAR=2015
DGENRE=Country
TTITLE0=Blake Shelton - Sangria
TTITLE1=Ashley Monroe - Lonely Tonight
TTITLE2=Blake Shelton - Neon Light
TTITLE3=Gwen Sebastian - My Eyes
TTITLE4=Blake Shelton - Doin' What She Likes
TTITLE5=Blake Shelton - Mine Would Be You
TTITLE6=Pistol Annies - Boys 'Round Here
TTITLE7=Blake Shelton - Sure Be Cool If You Did
TTITLE8=Blake Shelton - Over
TTITLE9=Blake Shelton - Drink On It
TTITLE10=Blake Shelton - God Gave Me You
TTITLE11=Blake Shelton - Honey Bee
TTITLE12=Blake Shelton - Who Are You When I'm Not Looking
TTITLE13=Blake Shelton - All About Tonight
TTITLE14=Blake Shelton - Hillbilly Bone
TTITLE15=Blake Shelton - She Wouldn't Be Gone
TTITLE16=Blake Shelton - Home
TTITLE17=Blake Shelton - Some Beach
TTITLE18=Blake Shelton - The Baby
TTITLE19=Blake Shelton - Austin
TTITLE20=Blake Shelton - Gonna [Bonus Track]
EXTD=
EXTT0=
EXTT1=
EXTT2=
EXTT3=
EXTT4=
EXTT5=
EXTT6=
EXTT7=
EXTT8=
EXTT9=
EXTT10=
EXTT11=
EXTT12=
EXTT13=
EXTT14=
EXTT15=
EXTT16=
EXTT17=
EXTT18=
EXTT19=
EXTT20=
PLAYORDER=
